<svg xmlns="http://www.w3.org/2000/svg" width="96.969" height="67.938" viewBox="0 0 96.969 67.938">
  <defs>
    <style>
      .cls-1 {
        fill-rule: evenodd;
      }
    </style>
  </defs>
  <path id="Forma_1" data-name="Forma 1" class="cls-1" d="M26.994,15.708a1,1,0,0,1,1-.993h0.772a8.885,8.885,0,0,1-.6-1.7,9.673,9.673,0,0,1-.474-2.992,10.011,10.011,0,0,1,5.218-8.764A10.4,10.4,0,0,1,44.8,2.81,10.394,10.394,0,0,1,56.678,1.254,10.024,10.024,0,0,1,61.9,10.02a9.706,9.706,0,0,1-.5,3.088c-1.612,7.179-15.475,15.879-16.069,16.246a1.025,1.025,0,0,1-.531.15,1,1,0,0,1-.527-0.15A68.668,68.668,0,0,1,32.645,20.1a0.976,0.976,0,0,1,.037-1.4,1,1,0,0,1,1.412.04A66.67,66.67,0,0,0,44.8,27.336c2.544-1.659,13.381-9.016,14.674-14.754A8.216,8.216,0,0,0,59.9,10.02,8.024,8.024,0,0,0,55.712,3,8.286,8.286,0,0,0,45.575,4.9a1,1,0,0,1-.77.358h0A1,1,0,0,1,44.037,4.9,8.337,8.337,0,0,0,33.886,3,7.959,7.959,0,0,0,30.1,12.5a8.677,8.677,0,0,0,.914,2.225h4.747L37.3,12.169a1.006,1.006,0,0,1,.839-0.486h0.018a0.994,0.994,0,0,1,.839.451l2.367,3.608,2.76-7.4a1,1,0,0,1,.941-0.648h0A1.008,1.008,0,0,1,46,8.338l2.4,6.377h4.184a0.993,0.993,0,1,1,0,1.986H47.713a1.015,1.015,0,0,1-.944-0.646l-1.7-4.522-2.517,6.753a1,1,0,0,1-.828.642c-0.038,0-.072.005-0.113,0.005a1,1,0,0,1-.836-0.451L38.2,14.55l-1.005,1.668a1,1,0,0,1-.857.486H28A1,1,0,0,1,26.994,15.708Zm69.02,32.9c-0.725,2.038-3.843,5.932-7.14,10.055A99.435,99.435,0,0,0,82.251,67.5a0.988,0.988,0,0,1-.859.487,1.026,1.026,0,0,1-.511-0.138,0.984,0.984,0,0,1-.351-1.356,101.008,101.008,0,0,1,6.771-9.07c0.115-.145.236-0.288,0.351-0.436a22.167,22.167,0,0,1-6.963,1.929A22.248,22.248,0,0,1,65.635,64.5,24.475,24.475,0,0,1,58.2,63.41c-0.05-.015-0.081-0.057-0.131-0.078A0.288,0.288,0,0,1,58,63.312a18.311,18.311,0,0,0-6.575-1.939A4.025,4.025,0,0,1,49.956,62.8c-2.709.866-4.614,0.863-5.807,0.051a2.627,2.627,0,0,1-.984-1.224,2.582,2.582,0,0,1-1.1-1.286,2.412,2.412,0,0,1-.139-1.011,2.731,2.731,0,0,1-.726-2.557,1.926,1.926,0,0,1-.424-1.477c0.247-1.742,3-3.081,4.251-3.6a2.17,2.17,0,0,1,1.507-.915c1.672-.228,3.619,1.441,4.435,2.235l5.361-.057a20.025,20.025,0,0,1-2.07-6.161c-3.6,2.608-7.227,2.463-10.371,1.919a27.291,27.291,0,0,1-7.184-2.251,24.956,24.956,0,0,1-12.316-2.8A14.791,14.791,0,1,1,29.94,32.157c0,0.481-.026.948-0.067,1.416a49.662,49.662,0,0,1,6.57,2.256C39.613,32.2,48.2,31.289,50.328,31.12c6.059-5.709,12.792-2.393,14.77-1.2l2.675-1.555-0.06-2.7c-1.144-1.079-1.654-3.29-1.848-4.423-1.921-1.132-1.895-4.884-1.866-5.7a1.323,1.323,0,0,1,.557-1.3,1.478,1.478,0,0,1,.712-0.271c-0.1-1.3-.215-2.689-0.215-2.866,0-6.166,6.4-7.841,9.779-7.865a8.075,8.075,0,0,1,6.308,2.9c1.837,2.346,1.948,5.5,1.811,7.343a1.575,1.575,0,0,1,.555.224,2.5,2.5,0,0,1,.738,2.45,5.629,5.629,0,0,1-1.963,5.011,8.271,8.271,0,0,1-.542,2.577l-0.175,1.715c1.01,2.6,7.659,6.9,11.711,9.035C99.089,36.233,96.344,47.346,96.014,48.606Zm-81.04-3.611A12.845,12.845,0,1,0,2,32.149,12.92,12.92,0,0,0,14.974,44.994ZM94.3,47.154a0.021,0.021,0,0,0,.01-0.01c0.715-3.3,1.427-9.852-1.819-10.838-1.351-.694-11.659-6.251-12.923-10.464a0.919,0.919,0,0,1-.039-0.385l0.215-2.075a1.324,1.324,0,0,1,.092-0.324,6.249,6.249,0,0,0,.44-2.4,0.972,0.972,0,0,1,.466-0.833,3.708,3.708,0,0,0,1.484-3.558,0.843,0.843,0,0,1,.008-0.314,2.558,2.558,0,0,0,.031-0.3,1.023,1.023,0,0,1-1.06-.037,0.982,0.982,0,0,1-.421-1.019c0.01-.048.9-4.532-1.249-7.256A6.107,6.107,0,0,0,74.781,5.22c-0.259,0-7.737.147-7.737,5.882,0.01,0.337.311,3.993,0.311,3.993a0.976,0.976,0,0,1-.429.9,1.011,1.011,0,0,1-.95.1c0.055,1.7.44,3.352,0.989,3.464a1.009,1.009,0,0,1,.791.848c0.2,1.611.829,3.557,1.429,3.889a0.984,0.984,0,0,1,.508.844l0.079,3.755a0.977,0.977,0,0,1-.492.875l-3.719,2.156a1.026,1.026,0,0,1-1.1-.056c-0.28-.207-7.02-5.026-13,0.906a0.984,0.984,0,0,1-.636.284c-3.036.2-11.325,1.409-13.217,4.518a1,1,0,0,1-1.31.371,42.544,42.544,0,0,0-6.768-2.417,14.731,14.731,0,0,1-3.565,6.648,22.529,22.529,0,0,0,10.885,2.281,1.135,1.135,0,0,1,.546.12,24.82,24.82,0,0,0,6.835,2.169c3.246,0.558,6.716.628,10.135-2.652a1.026,1.026,0,0,1,1.089-.2,1,1,0,0,1,.612.915,17.832,17.832,0,0,0,2.345,7.732c6.921-3.392,15.694-3.532,18.678-3.472,0.288-6.751,3.371-8.867,3.513-8.961a1.012,1.012,0,0,1,1.39.278,0.992,0.992,0,0,1-.27,1.369c-0.06.052-2.646,1.994-2.646,8.348a0.974,0.974,0,0,1-.314.721,1.09,1.09,0,0,1-.746.27c-0.115-.01-11.436-0.627-19.291,3.519a0.969,0.969,0,0,1-.655.3l-7.5.078a0.907,0.907,0,0,1-.738-0.311c-0.943-.988-2.394-2.012-3.015-1.947a0.282,0.282,0,0,0-.209.2,0.972,0.972,0,0,1-.517.466c-1.581.62-3.205,1.675-3.312,2.147,0.016,0,.056.054,0.166,0.138a0.982,0.982,0,0,1,.322,1.164,0.874,0.874,0,0,0,.208,1.12,0.986,0.986,0,0,1,.491,1.327c-0.164.395,0.166,0.607,0.48,0.747a1,1,0,0,1,.589.842,0.656,0.656,0,0,0,.3.342c0.307,0.189,1.3.537,3.859-.267a3.661,3.661,0,0,0,.779-1.076,0.972,0.972,0,0,1,.989-0.572c0.2,0.017,4.962.435,7.967,2.23,0.613,0.2,11.9,3.7,20.678-4.322a0.965,0.965,0,0,1,.623-0.262C80.662,56.944,91.048,56.286,94.3,47.154ZM45.373,38.434a0.98,0.98,0,0,0-.3,1.369,1.012,1.012,0,0,0,1.386.3c7.062-4.475,11.575.539,11.768,0.757a1.018,1.018,0,0,0,.759.342,1.006,1.006,0,0,0,.649-0.239,0.981,0.981,0,0,0,.11-1.395C59.688,39.506,53.945,33.013,45.373,38.434Zm42.668,1.854a0.985,0.985,0,0,0-.644,1.253c0.026,0.07,2.335,7.3-2.811,10.487a0.993,0.993,0,0,0,1.057,1.681c5.175-3.2,4.649-9.764,3.654-12.782A0.993,0.993,0,0,0,88.041,40.288Zm-68.75-8.139a4.318,4.318,0,1,1-4.317-4.276A4.3,4.3,0,0,1,19.291,32.149Zm-2,0a2.317,2.317,0,1,0-2.316,2.3A2.309,2.309,0,0,0,17.29,32.149Zm-4.554-5.928V24.66l0.48-.486,1.41,2.047H15.9l-2-2.753,1.87-1.9H14.534l-1.8,1.925V21.573H11.754v4.649h0.982Zm5.924-3.441h0.864v3.258a1.612,1.612,0,0,1-.4,1.2,1.812,1.812,0,0,1-1.272.388,2.046,2.046,0,0,1-1.129-.272,0.934,0.934,0,0,1-.445-0.757h0.992a0.3,0.3,0,0,0,.166.257,0.993,0.993,0,0,0,.466.081,0.724,0.724,0,0,0,.56-0.184,0.9,0.9,0,0,0,.166-0.608V25.722l-0.07.111a1.016,1.016,0,0,1-.867.414,1.38,1.38,0,0,1-1.1-.482,1.864,1.864,0,0,1-.415-1.271,2.021,2.021,0,0,1,.4-1.307,1.316,1.316,0,0,1,1.067-.491,1.072,1.072,0,0,1,.906.42,1.144,1.144,0,0,1,.11.17v-0.5h0Zm-0.024,1.7a1.2,1.2,0,0,0-.2-0.744,0.683,0.683,0,0,0-.563-0.268,0.659,0.659,0,0,0-.557.27,1.242,1.242,0,0,0-.2.752,1.2,1.2,0,0,0,.2.735,0.665,0.665,0,0,0,.555.266,0.677,0.677,0,0,0,.565-0.268A1.213,1.213,0,0,0,18.635,24.481Z" transform="translate(0 -0.063)"/>
</svg>
