<svg xmlns="http://www.w3.org/2000/svg" width="72" height="72" viewBox="0 0 72 72">
  <defs>
    <style>
      .cls-1 {
        fill-rule: evenodd;
      }
    </style>
  </defs>
  <path id="Forma_1" data-name="Forma 1" class="cls-1" d="M426,4443a36,36,0,1,1,36-36A36.041,36.041,0,0,1,426,4443Zm0-67.89A31.885,31.885,0,1,0,457.884,4407,31.926,31.926,0,0,0,426,4375.11Zm14.194,33.94H411.806a2.055,2.055,0,1,1,0-4.11h28.388A2.055,2.055,0,1,1,440.194,4409.05ZM426,4423.25a2.059,2.059,0,0,1-2.059-2.06V4392.8a2.058,2.058,0,0,1,4.115,0v28.39A2.055,2.055,0,0,1,426,4423.25Z" transform="translate(-390 -4371)"/>
</svg>
