<svg xmlns="http://www.w3.org/2000/svg" width="1029" height="591" viewBox="0 0 1029 591">
  <defs>
    <style>
      .cls-1 {
        fill-rule: evenodd;
      }
    </style>
  </defs>
  <path id="Forma_1" data-name="Forma 1" class="cls-1" d="M581.019,89.543V-54.65A5.347,5.347,0,0,0,575.673-60a5.346,5.346,0,0,0-5.346,5.35V87.8a173.961,173.961,0,0,0-44.894,0V-54.65A5.347,5.347,0,0,0,520.087-60a5.346,5.346,0,0,0-5.346,5.35V89.543A173.654,173.654,0,0,0,377.172,230.76a171.722,171.722,0,0,0-56.931-22.1c0-.048.015-0.093,0.015-0.142V-54.246a5.346,5.346,0,0,0-5.346-5.35,5.347,5.347,0,0,0-5.346,5.35v261.2a172.752,172.752,0,0,0-44.893-.021V-54.246a5.346,5.346,0,0,0-5.345-5.35,5.346,5.346,0,0,0-5.346,5.35V208.519c0,0.052.013,0.1,0.015,0.151-79.667,15.513-140,85.867-140,170.069C114,474.275,191.66,552,287.119,552A173.263,173.263,0,0,0,457.844,407.539a171.961,171.961,0,0,0,90.036,25.329C643.339,432.868,721,355.144,721,259.607,721,175.411,660.679,105.06,581.019,89.543ZM287.118,541.3c-89.563,0-162.428-72.924-162.428-162.56s72.865-162.562,162.428-162.562a161.516,161.516,0,0,1,88.491,26.254q-0.837,8.476-.85,17.176a173.547,173.547,0,0,0,3.6,35.221,123.62,123.62,0,0,0-91.24-40.166c-68.361,0-123.977,55.661-123.977,124.077s55.616,124.077,123.977,124.077S411.1,447.155,411.1,378.739a124.964,124.964,0,0,0-.807-14.109,174.653,174.653,0,0,0,37.721,36.425A162.534,162.534,0,0,1,287.118,541.3ZM400.4,378.739c0,62.515-50.819,113.376-113.285,113.376s-113.285-50.86-113.285-113.376,50.818-113.376,113.285-113.376S400.4,316.222,400.4,378.739ZM547.88,422.168c-89.563,0-162.429-72.925-162.429-162.561S458.317,97.046,547.88,97.046s162.429,72.926,162.429,162.562S637.444,422.168,547.88,422.168ZM671.856,259.607c0-68.416-55.615-124.078-123.976-124.078S423.905,191.191,423.905,259.607,479.521,383.685,547.88,383.685,671.856,328.022,671.856,259.607Zm-237.259,0c0-62.516,50.818-113.377,113.283-113.377s113.284,50.86,113.284,113.377S610.346,372.985,547.88,372.985,434.6,322.123,434.6,259.607ZM287.118,238.314a5.35,5.35,0,0,0,0-10.7c-83.263,0-151,67.795-151,151.125a5.346,5.346,0,1,0,10.692,0C146.809,301.309,209.752,238.314,287.118,238.314Zm403.246,15.157a5.348,5.348,0,0,0-5.346,5.35c0,77.431-62.942,140.423-140.309,140.423a5.351,5.351,0,0,0,0,10.7c83.262,0,151-67.794,151-151.124A5.347,5.347,0,0,0,690.364,253.471ZM278.171,146.636a5.348,5.348,0,0,0,5.346-5.351V-44.077a5.347,5.347,0,0,0-5.346-5.35,5.346,5.346,0,0,0-5.346,5.35V141.284A5.348,5.348,0,0,0,278.171,146.636ZM539.186,74.2a5.346,5.346,0,0,0,5.346-5.35V-3.66a5.347,5.347,0,0,0-5.346-5.351A5.348,5.348,0,0,0,533.84-3.66V68.846A5.348,5.348,0,0,0,539.186,74.2Z"/>
</svg>
